<svg width="40" height="39" viewBox="0 0 40 39" fill="none" xmlns="http://www.w3.org/2000/svg">
<g clip-path="url(#clip0_4_15)">
<path d="M0 0H40V39H0V0Z" fill="#017ACB"/>
<path d="M19.2062 14.4422H21.125V17.6719H15.9375V32.041L15.8 32.0776C15.6125 32.1263 13.1438 32.1263 12.6125 32.0715L12.1875 32.0349V17.6719H7V14.4422L8.64375 14.424C9.54375 14.4118 11.8563 14.4118 13.7812 14.424C15.7062 14.4362 18.1437 14.4422 19.2062 14.4422ZM33.85 30.5176C33.0875 31.3037 32.2687 31.7424 30.9062 32.1019C30.3125 32.2604 30.2125 32.2665 28.875 32.2604C27.5375 32.2543 27.4312 32.2543 26.7812 32.0897C25.1 31.6693 23.7438 30.8466 22.8188 29.6827C22.5563 29.3537 22.125 28.6712 22.125 28.5858C22.125 28.5615 22.1875 28.5066 22.2687 28.4701C22.35 28.4335 22.5187 28.3299 22.6562 28.2507C22.7938 28.1715 23.0437 28.0252 23.2125 27.9399C23.3812 27.8546 23.8688 27.5743 24.2938 27.3244C24.7188 27.0746 25.1062 26.8735 25.15 26.8735C25.1937 26.8735 25.275 26.9588 25.3375 27.0624C25.7125 27.6779 26.5875 28.464 27.2062 28.7321C27.5875 28.8905 28.4312 29.0672 28.8375 29.0672C29.2125 29.0672 29.9 28.9088 30.2687 28.7443C30.6625 28.5676 30.8625 28.3908 31.1 28.0374C31.2625 27.7876 31.2812 27.7205 31.275 27.2452C31.275 26.8065 31.25 26.6846 31.125 26.4835C30.775 25.9229 30.3 25.6304 28.375 24.8016C26.3875 23.9424 25.4937 23.4305 24.7687 22.7419C24.2312 22.2301 24.125 22.0899 23.7875 21.4501C23.35 20.6274 23.2938 20.3593 23.2875 19.1344C23.2813 18.2752 23.3 17.9949 23.3937 17.7024C23.525 17.2637 23.95 16.4166 24.1437 16.2033C24.5437 15.7463 24.6875 15.6062 24.9688 15.3807C25.8188 14.6982 27.1438 14.2472 28.4125 14.2046C28.5563 14.2046 29.0313 14.229 29.475 14.2594C30.75 14.363 31.6187 14.6677 32.4562 15.3197C33.0875 15.8072 34.0438 16.9529 33.95 17.1052C33.8875 17.1966 31.3938 18.8176 31.2313 18.8663C31.1313 18.8968 31.0625 18.8602 30.925 18.7018C30.075 17.7085 29.7312 17.4952 28.9062 17.4465C28.3188 17.4099 28.0062 17.4769 27.6125 17.7329C27.2 18.001 27 18.4093 27 18.976C27.0063 19.8047 27.3312 20.1947 28.5312 20.7737C29.3062 21.1454 29.9687 21.4501 30.0187 21.4501C30.0937 21.4501 31.7 22.2301 32.1188 22.4738C34.0688 23.589 34.8625 24.7346 35.0687 26.709C35.2187 28.1958 34.7875 29.5547 33.85 30.5176Z" fill="white"/>
</g>
<defs>
<clipPath id="clip0_4_15">
<rect width="40" height="39" fill="white"/>
</clipPath>
</defs>
</svg>
